<svg xmlns="http://www.w3.org/2000/svg" width="340" height="200" viewBox="0 0 340 200"><style>* {
          font-family: 'Segoe UI', Ubuntu, "Helvetica Neue", Sans-Serif
        }</style><rect x="1" y="1" rx="5" ry="5" height="99%" width="99.41176470588235%" stroke="#1a1b27" stroke-width="1" fill="#1a1b27" stroke-opacity="1"></rect><text x="30" y="40" style="font-size: 22px; fill: #70a5fd;">Top Languages by Commit</text><g transform="translate(0,40)"><g transform="translate(40,0)"><rect y="18" width="14" height="14" fill="#DA5B0B" stroke="#1a1b27" style="stroke-width: 1px;"></rect><rect y="43.2" width="14" height="14" fill="#3572A5" stroke="#1a1b27" style="stroke-width: 1px;"></rect><rect y="68.4" width="14" height="14" fill="#663399" stroke="#1a1b27" style="stroke-width: 1px;"></rect><rect y="93.60000000000002" width="14" height="14" fill="#e34c26" stroke="#1a1b27" style="stroke-width: 1px;"></rect><rect y="118.80000000000001" width="14" height="14" fill="#ff5a03" stroke="#1a1b27" style="stroke-width: 1px;"></rect><text x="16.8" y="30" style="fill: #38bdae; font-size: 14px;">Jupyter Notebook</text><text x="16.8" y="55.2" style="fill: #38bdae; font-size: 14px;">Python</text><text x="16.8" y="80.4" style="fill: #38bdae; font-size: 14px;">CSS</text><text x="16.8" y="105.60000000000002" style="fill: #38bdae; font-size: 14px;">HTML</text><text x="16.8" y="130.8" style="fill: #38bdae; font-size: 14px;">Astro</text></g><g transform="translate( 230, 80 )"><g class="arc"><path d="M3.67394039744206e-15,-60A60,60,0,0,1,11.46951772208235,58.89354941946392L6.690552004548037,34.35457049468729A35,35,0,0,0,2.1431318985078682e-15,-35Z" style="fill: #DA5B0B; stroke-width: 2px;" stroke="#1a1b27"></path></g><g class="arc"><path d="M11.46951772208235,58.89354941946392A60,60,0,0,1,-37.409388111524024,-46.90988894808178L-21.82214306505568,-27.36410188638104A35,35,0,0,0,6.690552004548037,34.35457049468729Z" style="fill: #3572A5; stroke-width: 2px;" stroke="#1a1b27"></path></g><g class="arc"><path d="M-37.409388111524024,-46.90988894808178A60,60,0,0,1,-18.906493081417228,-56.94334482064013L-11.028787630826717,-33.21695114537341A35,35,0,0,0,-21.82214306505568,-27.36410188638104Z" style="fill: #663399; stroke-width: 2px;" stroke="#1a1b27"></path></g><g class="arc"><path d="M-18.906493081417228,-56.94334482064013A60,60,0,0,1,-1.9230946542993137,-59.96917297204127L-1.121805215007933,-34.98201756702407A35,35,0,0,0,-11.028787630826717,-33.21695114537341Z" style="fill: #e34c26; stroke-width: 2px;" stroke="#1a1b27"></path></g><g class="arc"><path d="M-1.9230946542993137,-59.96917297204127A60,60,0,0,1,-1.1021821192326178e-14,-60L-6.429395695523604e-15,-35A35,35,0,0,0,-1.121805215007933,-34.98201756702407Z" style="fill: #ff5a03; stroke-width: 2px;" stroke="#1a1b27"></path></g></g></g></svg>