<svg xmlns="http://www.w3.org/2000/svg" width="340" height="200" viewBox="0 0 340 200"><style>* {
          font-family: 'Segoe UI', Ubuntu, "Helvetica Neue", Sans-Serif
        }</style><rect x="1" y="1" rx="5" ry="5" height="99%" width="99.41176470588235%" stroke="#1a1b27" stroke-width="1" fill="#1a1b27" stroke-opacity="1"></rect><text x="30" y="40" style="font-size: 22px; fill: red;">Top Languages by Commit</text><g transform="translate(0,40)"><g transform="translate(40,0)"><rect y="18" width="14" height="14" fill="#DA5B0B" stroke="#1a1b27" style="stroke-width: 1px;"></rect><rect y="43.2" width="14" height="14" fill="#3572A5" stroke="#1a1b27" style="stroke-width: 1px;"></rect><rect y="68.4" width="14" height="14" fill="#663399" stroke="#1a1b27" style="stroke-width: 1px;"></rect><rect y="93.60000000000002" width="14" height="14" fill="#e34c26" stroke="#1a1b27" style="stroke-width: 1px;"></rect><rect y="118.80000000000001" width="14" height="14" fill="#ff5a03" stroke="#1a1b27" style="stroke-width: 1px;"></rect><text x="16.8" y="30" style="fill: #38bdae; font-size: 14px;">Jupyter Notebook</text><text x="16.8" y="55.2" style="fill: #38bdae; font-size: 14px;">Python</text><text x="16.8" y="80.4" style="fill: #38bdae; font-size: 14px;">CSS</text><text x="16.8" y="105.60000000000002" style="fill: #38bdae; font-size: 14px;">HTML</text><text x="16.8" y="130.8" style="fill: #38bdae; font-size: 14px;">Astro</text></g><g transform="translate( 230, 80 )"><g class="arc"><path d="M3.67394039744206e-15,-60A60,60,0,1,1,-8.722642896285286,59.36257660263648L-5.088208356166417,34.62816968487128A35,35,0,1,0,2.1431318985078682e-15,-35Z" style="fill: #DA5B0B; stroke-width: 2px;" stroke="#1a1b27"></path></g><g class="arc"><path d="M-8.722642896285286,59.36257660263648A60,60,0,0,1,-23.834229135626714,-55.06295961452166L-13.903300329115583,-32.12005977513763A35,35,0,0,0,-5.088208356166417,34.62816968487128Z" style="fill: #3572A5; stroke-width: 2px;" stroke="#1a1b27"></path></g><g class="arc"><path d="M-23.834229135626714,-55.06295961452166A60,60,0,0,1,-11.59808160863763,-58.868365893741114L-6.765547605038617,-34.339880104682315A35,35,0,0,0,-13.903300329115583,-32.12005977513763Z" style="fill: #663399; stroke-width: 2px;" stroke="#1a1b27"></path></g><g class="arc"><path d="M-11.59808160863763,-58.868365893741114A60,60,0,0,1,-1.1670815576232139,-59.98864826479969L-0.680797575280208,-34.99337815446649A35,35,0,0,0,-6.765547605038617,-34.339880104682315Z" style="fill: #e34c26; stroke-width: 2px;" stroke="#1a1b27"></path></g><g class="arc"><path d="M-1.1670815576232139,-59.98864826479969A60,60,0,0,1,-6.431252637433369e-14,-60L-3.7515640385027985e-14,-35A35,35,0,0,0,-0.680797575280208,-34.99337815446649Z" style="fill: #ff5a03; stroke-width: 2px;" stroke="#1a1b27"></path></g></g></g></svg>