<svg xmlns="http://www.w3.org/2000/svg" width="340" height="200" viewBox="0 0 340 200"><style>* {
          font-family: 'Segoe UI', Ubuntu, "Helvetica Neue", Sans-Serif
        }</style><rect x="1" y="1" rx="5" ry="5" height="99%" width="99.41176470588235%" stroke="#1a1b27" stroke-width="1" fill="#1a1b27" stroke-opacity="1"></rect><text x="30" y="40" style="font-size: 22px; fill: #70a5fd;">Top Languages by Commit</text><g transform="translate(0,40)"><g transform="translate(40,0)"><rect y="18" width="14" height="14" fill="#DA5B0B" stroke="#1a1b27" style="stroke-width: 1px;"></rect><rect y="43.2" width="14" height="14" fill="#3572A5" stroke="#1a1b27" style="stroke-width: 1px;"></rect><rect y="68.4" width="14" height="14" fill="#663399" stroke="#1a1b27" style="stroke-width: 1px;"></rect><rect y="93.60000000000002" width="14" height="14" fill="#e34c26" stroke="#1a1b27" style="stroke-width: 1px;"></rect><rect y="118.80000000000001" width="14" height="14" fill="#ff5a03" stroke="#1a1b27" style="stroke-width: 1px;"></rect><text x="16.8" y="30" style="fill: #38bdae; font-size: 14px;">Jupyter Notebook</text><text x="16.8" y="55.2" style="fill: #38bdae; font-size: 14px;">Python</text><text x="16.8" y="80.4" style="fill: #38bdae; font-size: 14px;">CSS</text><text x="16.8" y="105.60000000000002" style="fill: #38bdae; font-size: 14px;">HTML</text><text x="16.8" y="130.8" style="fill: #38bdae; font-size: 14px;">Astro</text></g><g transform="translate( 230, 80 )"><g class="arc"><path d="M3.67394039744206e-15,-60A60,60,0,0,1,4.148571894932499,59.85640610020431L2.420000272043958,34.91623689178585A35,35,0,0,0,2.1431318985078682e-15,-35Z" style="fill: #DA5B0B; stroke-width: 2px;" stroke="#1a1b27"></path></g><g class="arc"><path d="M4.148571894932499,59.85640610020431A60,60,0,0,1,-32.94483917669968,-50.14616208266984L-19.21782285307481,-29.251927881557407A35,35,0,0,0,2.420000272043958,34.91623689178585Z" style="fill: #3572A5; stroke-width: 2px;" stroke="#1a1b27"></path></g><g class="arc"><path d="M-32.94483917669968,-50.14616208266984A60,60,0,0,1,-16.39628752092348,-57.71621743956554L-9.56450105387203,-33.66779350641323A35,35,0,0,0,-19.21782285307481,-29.251927881557407Z" style="fill: #663399; stroke-width: 2px;" stroke="#1a1b27"></path></g><g class="arc"><path d="M-16.39628752092348,-57.71621743956554A60,60,0,0,1,-1.6605417722097155,-59.977017273475234L-0.9686493671223341,-34.98659340952722A35,35,0,0,0,-9.56450105387203,-33.66779350641323Z" style="fill: #e34c26; stroke-width: 2px;" stroke="#1a1b27"></path></g><g class="arc"><path d="M-1.6605417722097155,-59.977017273475234A60,60,0,0,1,-1.1021821192326178e-14,-60L-6.429395695523604e-15,-35A35,35,0,0,0,-0.9686493671223341,-34.98659340952722Z" style="fill: #ff5a03; stroke-width: 2px;" stroke="#1a1b27"></path></g></g></g></svg>