<svg xmlns="http://www.w3.org/2000/svg" width="340" height="200" viewBox="0 0 340 200"><style>* {
          font-family: 'Segoe UI', Ubuntu, "Helvetica Neue", Sans-Serif
        }</style><g class="gpsc-root"><rect x="1" y="1" rx="5" ry="5" height="99%" width="99.41176470588235%" stroke="#1a1b27" stroke-width="1" fill="#1a1b27" stroke-opacity="1"></rect><text x="30" y="40" class="gpsc-item" style="--gpsc-i: 0; font-size: 22px; fill: #70a5fd;">Top Languages by Commit</text><g transform="translate(0,40)"><g transform="translate(40,0)"><rect y="18" width="14" height="14" class="gpsc-item" style="--gpsc-i: 0; stroke-width: 1px;" fill="#3572A5" stroke="#1a1b27"></rect><rect y="43.2" width="14" height="14" class="gpsc-item" style="--gpsc-i: 1; stroke-width: 1px;" fill="#DA5B0B" stroke="#1a1b27"></rect><rect y="68.4" width="14" height="14" class="gpsc-item" style="--gpsc-i: 2; stroke-width: 1px;" fill="#663399" stroke="#1a1b27"></rect><rect y="93.60000000000002" width="14" height="14" class="gpsc-item" style="--gpsc-i: 3; stroke-width: 1px;" fill="#e34c26" stroke="#1a1b27"></rect><rect y="118.80000000000001" width="14" height="14" class="gpsc-item" style="--gpsc-i: 4; stroke-width: 1px;" fill="#3178c6" stroke="#1a1b27"></rect><text x="16.8" y="30" class="gpsc-item" style="--gpsc-i: 0; fill: #38bdae; font-size: 14px;">Python</text><text x="16.8" y="55.2" class="gpsc-item" style="--gpsc-i: 1; fill: #38bdae; font-size: 14px;">Jupyter Notebook</text><text x="16.8" y="80.4" class="gpsc-item" style="--gpsc-i: 2; fill: #38bdae; font-size: 14px;">CSS</text><text x="16.8" y="105.60000000000002" class="gpsc-item" style="--gpsc-i: 3; fill: #38bdae; font-size: 14px;">HTML</text><text x="16.8" y="130.8" class="gpsc-item" style="--gpsc-i: 4; fill: #38bdae; font-size: 14px;">TypeScript</text></g><g transform="translate( 230, 80 )"><g class="arc" style="--gpsc-i: 0;"><path d="M3.67394039744206e-15,-60A60,60,0,1,1,-9.221437235867603,59.28714106199551L-5.379171720922768,34.584165619497384A35,35,0,1,0,2.1431318985078682e-15,-35Z" style="fill: #3572A5; stroke-width: 2px;" stroke="#1a1b27"></path></g><g class="arc" style="--gpsc-i: 1;"><path d="M-9.221437235867603,59.28714106199551A60,60,0,0,1,-18.92800964856059,-56.93619631433064L-11.041338961660344,-33.21278118335954A35,35,0,0,0,-5.379171720922768,34.584165619497384Z" style="fill: #DA5B0B; stroke-width: 2px;" stroke="#1a1b27"></path></g><g class="arc" style="--gpsc-i: 2;"><path d="M-18.92800964856059,-56.93619631433064A60,60,0,0,1,-11.046383269677436,-58.97437932407081L-6.443723573978504,-34.40172127237464A35,35,0,0,0,-11.041338961660344,-33.21278118335954Z" style="fill: #663399; stroke-width: 2px;" stroke="#1a1b27"></path></g><g class="arc" style="--gpsc-i: 3;"><path d="M-11.046383269677436,-58.97437932407081A60,60,0,0,1,-4.439841342195523,-59.83550625553469L-2.589907449614055,-34.90404531572857A35,35,0,0,0,-6.443723573978504,-34.40172127237464Z" style="fill: #e34c26; stroke-width: 2px;" stroke="#1a1b27"></path></g><g class="arc" style="--gpsc-i: 4;"><path d="M-4.439841342195523,-59.83550625553469A60,60,0,0,1,-1.1021821192326178e-14,-60L-6.429395695523604e-15,-35A35,35,0,0,0,-2.589907449614055,-34.90404531572857Z" style="fill: #3178c6; stroke-width: 2px;" stroke="#1a1b27"></path></g></g></g></g></svg>